<svg xmlns="http://www.w3.org/2000/svg" version="1.1" xmlns:xlink="http://www.w3.org/1999/xlink" xmlns:svgjs="http://svgjs.dev/svgjs" width="1000" height="1000" viewBox="0 0 1000 1000"><rect width="1000" height="1000" fill="#000000"></rect><g transform="matrix(0.7,0,0,0.7,149.5757690225293,394.2581107602431)"><svg viewBox="0 0 396 120" data-background-color="#ffffff" preserveAspectRatio="xMidYMid meet" height="303" width="1000" xmlns="http://www.w3.org/2000/svg" xmlns:xlink="http://www.w3.org/1999/xlink"><defs></defs><g id="tight-bounds" transform="matrix(1,0,0,1,0.23999352439773247,-0.17432009066089904)"><svg viewBox="0 0 395.52 120.34864018132177" height="120.34864018132177" width="395.52"><g><svg viewBox="0 0 602.4764820903433 183.32126153114706" height="120.34864018132177" width="395.52"><g transform="matrix(1,0,0,1,206.9564820903434,41.60691482167542)"><svg viewBox="0 0 395.52 100.10743188779622" height="100.10743188779622" width="395.52"><g><svg viewBox="0 0 395.52 100.10743188779622" height="100.10743188779622" width="395.52"><g><svg viewBox="0 0 395.52 100.10743188779622" height="100.10743188779622" width="395.52"><g transform="matrix(1,0,0,1,0,0)"><svg width="395.52" viewBox="5.489999771118164 -37.84000015258789 151.42999267578125 38.33000183105469" height="100.10743188779622" data-palette-color="#000000"><path d="M19.41 0.49L17.9 0.49Q9.33 0.49 7.01-4.98L7.01-4.98Q5.64-8.18 5.54-13.43L5.54-13.43Q5.49-15.89 5.49-18.65L5.49-18.65 5.49-20.12Q5.49-26.66 6.03-29.22 6.57-31.79 7.39-33.29 8.2-34.79 9.57-35.79L9.57-35.79Q12.33-37.84 17.9-37.84L17.9-37.84 19.41-37.84Q25.34-37.84 28.17-35.84L28.17-35.84Q31.69-33.33 31.93-25.46L31.93-25.46Q32.01-23.02 32.01-20.12L32.01-20.12 32.01-18.65Q32.01-11.87 31.56-9.24 31.1-6.62 30.32-4.91 29.54-3.2 28.13-2L28.13-2Q25.22 0.49 19.41 0.49L19.41 0.49ZM17.9-3.15L19.36-3.15Q22-3.15 23.62-3.74 25.24-4.32 26.16-5.79 27.08-7.25 27.39-9.75 27.71-12.26 27.71-16.09L27.71-16.09 27.71-20.12Q27.71-23.85 27.56-26.51 27.42-29.17 26.65-30.86 25.88-32.54 24.24-33.34 22.61-34.13 19.65-34.13L19.65-34.13 17.6-34.13Q12.3-34.13 10.86-30.81L10.86-30.81Q9.96-28.69 9.86-25.62 9.77-22.56 9.77-20.12L9.77-20.12 9.77-16.09Q9.77-8.67 11.33-6.01L11.33-6.01Q13.04-3.15 17.9-3.15L17.9-3.15ZM39.6 0L49.22-14.72 39.89-29.05 44.63-29.05 51.85-17.31 59.2-29.05 63.86-29.05 54.39-14.84 64.43 0 59.74 0 51.83-12.08 44.06 0 39.6 0ZM77.63-16.8L77.63-16.8 76.48-16.77 76.48 0 72.33 0 72.33-37.35 76.48-37.35 76.48-19.82Q77.85-19.82 78.27-20.03 78.68-20.24 79.24-20.64 79.8-21.04 80.9-22.3 82-23.56 83.25-25.17L83.25-25.17Q86.54-29.64 87.93-31.71L87.93-31.71 90.2-35.18Q91.08-36.57 91.52-37.38L91.52-37.38 96.36-37.38Q96.14-36.89 95.5-35.89L95.5-35.89Q93.38-32.62 92.11-30.86L92.11-30.86 87.42-24.54 85.3-21.92Q83.12-19.34 82.42-19.07L82.42-19.07 82.42-18.85 83.17-18.55Q84.86-17.92 87.5-14.43L87.5-14.43 98.24 0 92.94 0 85.1-11.08Q81.17-16.6 78.44-16.77L78.44-16.77Q78.05-16.8 77.63-16.8ZM112.39 0L112.37-13.79 100.19-37.35 104.73-37.35 112.71-21.31 114.52-17.19 116.3-21.39 124.11-37.35 128.7-37.35 116.52-13.79 116.5 0 112.39 0ZM147.62-3.03L147.84-3.03Q151.82-3.03 155.85-4.57L155.85-4.57 156.92-1.2Q155.07-0.27 152.46 0.11 149.84 0.49 147.84 0.49L147.84 0.49 147.5 0.49Q138.81 0.49 135.85-4.49L135.85-4.49Q134.05-7.52 133.66-12.65L133.66-12.65Q133.49-15.11 133.49-18.04 133.49-20.97 133.64-23.62 133.8-26.27 134.29-28.48 134.78-30.69 135.71-32.42 136.64-34.16 138.2-35.35L138.2-35.35Q141.37-37.84 147.43-37.84L147.43-37.84Q151.33-37.84 153.71-37.34 156.09-36.84 156.92-36.52L156.92-36.52 155.82-32.67Q151.06-34.33 147.68-34.33 144.3-34.33 142.48-33.51 140.66-32.69 139.64-30.81L139.64-30.81Q137.86-27.59 137.86-18.53L137.86-18.53 137.86-16.72Q137.86-9.28 139.78-6.32L139.78-6.32Q141.93-3.03 147.62-3.03L147.62-3.03Z" opacity="1" transform="matrix(1,0,0,1,0,0)" fill="#ffffff" class="undefined-text-0" data-fill-palette-color="primary" id="text-0"></path></svg></g></svg></g></svg></g></svg></g><g><svg viewBox="0 0 183.32352 183.32126153114706" height="183.32126153114706" width="183.32352"><g><svg xmlns="http://www.w3.org/2000/svg" xmlns:xlink="http://www.w3.org/1999/xlink" version="1.1" x="0" y="0" viewBox="9.645998001098633 9.61999797821045 81.12700653076172 81.12600708007812" enable-background="new 0 0 100 100" xml:space="preserve" height="183.32126153114706" width="183.32352" class="icon-icon-0" data-fill-palette-color="accent" id="icon-0"><g fill="#f48037" data-fill-palette-color="accent"><path d="M50.209 26.437c-13.093 0-23.746 10.653-23.746 23.747s10.652 23.745 23.746 23.745c13.094 0 23.745-10.651 23.745-23.745S63.303 26.437 50.209 26.437z" fill="#ffffff" data-fill-palette-color="accent"></path><path d="M80.527 56.869c0.025-0.188 0.053-0.375 0.08-0.562 0.051-0.202 0.102-0.404 0.152-0.606 1.407-5.517 10.014-5.517 10.014-5.517s-8.574 0-9.996-5.426c-0.049-0.184-0.094-0.365-0.141-0.548-0.029-0.207-0.06-0.413-0.09-0.62-0.813-5.637 7.139-8.93 7.139-8.93s-7.922 3.281-11.311-1.187c-0.117-0.154-0.23-0.308-0.346-0.462-0.105-0.178-0.211-0.354-0.316-0.529-2.906-4.896 3.18-10.982 3.18-10.982s-6.063 6.062-10.904 3.231c-0.154-0.09-0.312-0.183-0.47-0.275-0.173-0.129-0.346-0.257-0.519-0.388-4.561-3.41-1.268-11.361-1.268-11.361s-3.281 7.922-8.837 7.158c-0.183-0.024-0.369-0.051-0.556-0.076-0.206-0.053-0.412-0.105-0.612-0.157C50.21 18.227 50.21 9.62 50.21 9.62s0 8.573-5.425 9.995c-0.179 0.046-0.362 0.094-0.545 0.141-0.209 0.03-0.42 0.061-0.624 0.09-5.636 0.812-8.93-7.139-8.93-7.139s3.282 7.922-1.187 11.311c-0.146 0.111-0.299 0.227-0.449 0.34-0.183 0.107-0.364 0.216-0.541 0.32C27.613 27.586 21.527 21.5 21.527 21.5s6.062 6.062 3.232 10.904c-0.1 0.169-0.2 0.336-0.301 0.504-0.121 0.164-0.244 0.326-0.363 0.485-3.41 4.56-11.361 1.267-11.361 1.267s7.922 3.281 7.158 8.836c-0.025 0.188-0.053 0.374-0.079 0.561-0.052 0.203-0.103 0.405-0.153 0.608-1.406 5.517-10.014 5.517-10.014 5.517s8.574 0.002 9.996 5.427c0.048 0.186 0.094 0.37 0.141 0.556 0.031 0.204 0.061 0.406 0.09 0.611 0.812 5.636-7.139 8.93-7.139 8.93s7.922-3.28 11.311 1.188c0.115 0.153 0.229 0.307 0.344 0.459 0.105 0.178 0.211 0.354 0.316 0.532 2.908 4.896-3.178 10.98-3.178 10.98s6.062-6.062 10.903-3.229c0.167 0.098 0.332 0.195 0.499 0.295 0.164 0.121 0.326 0.243 0.49 0.365 4.561 3.412 1.267 11.363 1.267 11.363s3.282-7.921 8.837-7.158c0.186 0.025 0.369 0.052 0.555 0.078 0.205 0.051 0.408 0.104 0.614 0.155 5.518 1.405 5.518 10.012 5.518 10.012s0-8.574 5.425-9.995c0.183-0.047 0.365-0.094 0.549-0.141 0.207-0.029 0.412-0.06 0.62-0.09 5.636-0.812 8.929 7.139 8.929 7.139s-3.281-7.921 1.188-11.311c0.15-0.115 0.303-0.227 0.455-0.342 0.178-0.105 0.355-0.212 0.535-0.318 4.896-2.907 10.982 3.178 10.982 3.178s-6.063-6.062-3.232-10.904c0.096-0.162 0.192-0.324 0.289-0.486 0.125-0.168 0.249-0.335 0.375-0.503 3.409-4.56 11.361-1.267 11.361-1.267S79.764 62.425 80.527 56.869zM50.209 76.399c-14.455 0-26.215-11.761-26.215-26.216 0-14.456 11.76-26.216 26.215-26.216s26.216 11.761 26.216 26.216C76.425 64.639 64.664 76.399 50.209 76.399z" fill="#ffffff" data-fill-palette-color="accent"></path></g></svg></g></svg></g></svg></g></svg><rect width="395.52" height="120.34864018132177" fill="none" stroke="none" visibility="hidden"></rect></g></svg></g></svg>